<?xml version="1.0" encoding="UTF-8"?>
<svg version="1.1" xmlns="http://www.w3.org/2000/svg" width="512" height="512">
<path d="M0 0 C2.61679372 -0.00378973 5.23358542 -0.00929513 7.85037231 -0.01637268 C14.17949189 -0.03020335 20.50841003 -0.02282666 26.83751976 -0.0076971 C34.22197663 0.00927538 41.60638491 0.005939 48.99085528 0.00220882 C62.16956244 -0.00365035 75.3481736 0.01042901 88.52685547 0.03515625 C101.29251699 0.05910554 114.0580505 0.06614473 126.82373047 0.05566406 C140.76174216 0.04424124 154.69969487 0.04233899 168.63770586 0.05676216 C170.12499749 0.05828786 171.61228913 0.05980822 173.09958076 0.06132317 C174.19697406 0.06245989 174.19697406 0.06245989 175.31653691 0.06361957 C180.45569745 0.06834918 185.5948315 0.06652064 190.73399162 0.06225777 C197.65263824 0.05680223 204.57110517 0.0676241 211.48971939 0.08921242 C214.02530509 0.09476766 216.56090781 0.09525722 219.09649467 0.09025955 C222.56268853 0.08428512 226.02834596 0.09685368 229.49449158 0.11402893 C230.99172969 0.10501386 230.99172969 0.10501386 232.51921505 0.09581667 C247.84050174 0.23345551 259.12100571 6.78069249 269.71899414 17.50170898 C280.63848857 29.4177398 284.73972683 43.36165623 284.31274414 59.21704102 C283.52685578 70.97472619 279.41549867 82.22250937 275.86738586 93.38641357 C274.7651688 96.87601106 273.69586028 100.3756574 272.62426758 103.87475586 C271.30440593 108.17830634 269.9818416 112.4809223 268.64471436 116.77914429 C265.71444051 126.20304391 262.88734509 135.65158181 260.14086914 145.13061523 C259.78412109 146.35771713 259.42737305 147.58481903 259.05981445 148.84910583 C257.70194293 153.5214322 256.3444327 158.19379942 255.00195312 162.87057495 C245.1873409 196.98653621 229.97181461 226.7237012 197.85864258 244.53344727 C182.34860343 252.75071388 166.27744186 256.64781251 148.78121948 256.65560913 C147.58132389 256.65999138 146.3814283 256.66437364 145.14517224 256.66888869 C141.82665299 256.67991118 138.50818055 256.68648796 135.18964982 256.69106984 C131.60514272 256.69705023 128.02065273 256.70865416 124.43615723 256.71936035 C115.7833599 256.74383303 107.13055695 256.75850616 98.4777357 256.77142042 C96.03005527 256.77513681 93.5823754 256.77910969 91.13469553 256.78317308 C75.90690522 256.80841961 60.67911391 256.83045407 45.4513073 256.84290123 C41.92741772 256.84583052 38.40352818 256.84879224 34.87963867 256.85180664 C34.00388373 256.85255269 33.12812879 256.85329874 32.22583582 256.8540674 C18.06578002 256.86669828 3.90585044 256.89989342 -10.25414647 256.94160847 C-24.82146014 256.98416831 -39.38870946 257.0076126 -53.95608509 257.01282179 C-62.12302238 257.01622058 -70.28976263 257.02779282 -78.45663834 257.06092453 C-85.41792967 257.08912038 -92.37898355 257.09983988 -99.34032752 257.08872907 C-102.88333386 257.08359128 -106.42584453 257.08610396 -109.9687767 257.11119461 C-125.90599849 257.20589144 -141.08156597 256.77522807 -156.28100586 251.50170898 C-157.66090938 248.74190195 -156.88755191 247.668993 -155.93603516 244.76318359 C-155.45139801 243.26411972 -155.45139801 243.26411972 -154.95697021 241.73477173 C-154.59339417 240.63563446 -154.22981812 239.53649719 -153.85522461 238.40405273 C-153.48125549 237.2530307 -153.10728638 236.10200867 -152.72198486 234.91610718 C-151.90675298 232.40925557 -151.08896066 229.90341061 -150.26681519 227.39883423 C-148.27935317 221.34294427 -146.31490227 215.27957049 -144.34767342 209.21708488 C-143.66635878 207.11828073 -142.98415942 205.0197656 -142.30186462 202.92127991 C-138.23547059 190.40619426 -134.26319397 177.86218555 -130.3170166 165.3086853 C-123.84725416 144.72770163 -117.31604426 124.16709055 -110.71850586 103.62670898 C-110.35659149 102.49826569 -109.99467712 101.36982239 -109.62179565 100.20718384 C-107.54642935 93.73859531 -105.45766423 87.27455966 -103.35491943 80.81481934 C-102.61077584 78.51907609 -101.87174102 76.22167299 -101.13677979 73.92297363 C-99.97752289 70.29743498 -98.80419959 66.67668448 -97.62866211 63.05639648 C-97.10906166 61.41418625 -97.10906166 61.41418625 -96.57896423 59.73880005 C-92.95465023 48.67286549 -87.73075498 39.42158598 -80.28100586 30.50170898 C-79.77182617 29.84686523 -79.26264648 29.19202148 -78.73803711 28.51733398 C-71.53112637 19.61991332 -62.25513939 13.1069051 -52.03100586 8.12670898 C-51.41370605 7.81733398 -50.79640625 7.50795898 -50.16040039 7.18920898 C-34.09816026 -0.18283438 -17.31129928 -0.07188251 0 0 Z " fill="#9332EA" transform="translate(228.281005859375,255.498291015625)"/>
<path d="M0 0 C1.24708237 -0.00686325 2.49416473 -0.0137265 3.77903748 -0.02079773 C7.16783551 -0.03586033 10.55607859 -0.03758799 13.94486833 -0.03185534 C16.78982 -0.02874147 19.63472312 -0.03488037 22.47966784 -0.04089409 C29.20067989 -0.05489145 35.92156471 -0.05341909 42.64257812 -0.04199219 C49.53921606 -0.03052461 56.43546448 -0.04457443 63.3320511 -0.07138866 C69.28661011 -0.09365968 75.24104788 -0.10015731 81.19564551 -0.09431225 C84.73729934 -0.09096745 88.27870387 -0.09318979 91.82032204 -0.11056328 C95.77750097 -0.1291317 99.73421384 -0.11472882 103.69140625 -0.09765625 C104.8393869 -0.10732422 105.98736755 -0.11699219 107.1701355 -0.12695312 C124.49464362 0.02832701 138.9637013 6.46910297 151.24291992 18.47827148 C166.46358863 34.02421228 170.5451693 52.2236254 170.38037109 73.40551758 C170.37944952 74.97915436 170.37985692 76.55279238 170.38146687 78.1264286 C170.3821372 82.29637465 170.36489802 86.46605629 170.34363556 90.63594055 C170.32640215 94.56556932 170.32573821 98.49513756 170.3236084 102.42480469 C170.30793927 113.87625499 170.26605546 125.32765731 170.22729492 136.77905273 C170.16541992 162.39530273 170.10354492 188.01155273 170.03979492 214.40405273 C92.15979492 214.40405273 14.27979492 214.40405273 -65.96020508 214.40405273 C-66.02208008 188.78780273 -66.08395508 163.17155273 -66.14770508 136.77905273 C-66.17501709 128.71000488 -66.2023291 120.64095703 -66.23046875 112.32739258 C-66.24401855 102.42480469 -66.24401855 102.42480469 -66.24653625 97.77944946 C-66.24931547 94.55583418 -66.26049459 91.3323692 -66.27693176 88.10879517 C-66.29769498 83.98136703 -66.30364461 79.85415365 -66.29942191 75.72667813 C-66.30030331 74.2216303 -66.30614133 72.716574 -66.31785047 71.21157146 C-66.41046135 58.71525622 -65.27972968 46.36257896 -59.33520508 35.15405273 C-58.99038086 34.48639893 -58.64555664 33.81874512 -58.2902832 33.13085938 C-55.02337398 27.06552274 -50.9399425 22.16266504 -45.96020508 17.40405273 C-45.34790039 16.77241211 -44.7355957 16.14077148 -44.10473633 15.48999023 C-32.18852346 3.95489292 -16.09755806 -0.06279219 0 0 Z M27.28979492 55.21655273 C21.09286786 63.99553274 19.90294849 71.63331176 21.03979492 82.40405273 C23.10212747 90.7876176 28.96874281 97.61428252 36.10229492 102.27905273 C43.94416429 106.71531026 51.90263733 107.87661785 60.75854492 105.75170898 C69.53002038 102.59776796 76.41962086 96.47996675 81.03979492 88.40405273 C84.83803487 79.47818885 84.64525231 70.97765443 81.10620117 62.04858398 C77.52506057 54.8491283 71.67602463 48.80487053 64.28979492 45.46655273 C49.74393971 40.71117699 37.80346713 44.46393343 27.28979492 55.21655273 Z M13.35229492 143.84155273 C12.58916992 144.68717773 11.82604492 145.53280273 11.03979492 146.40405273 C10.52416992 146.97381836 10.00854492 147.54358398 9.47729492 148.13061523 C6.08779752 151.96009547 3.39163844 155.0919382 2.60229492 160.27905273 C3.21734812 164.67228984 4.95881137 166.24971243 8.03979492 169.40405273 C11.15320223 170.96075639 14.46353004 170.57797993 17.88256836 170.59692383 C18.69252258 170.60510132 19.50247681 170.61327881 20.3369751 170.6217041 C23.02436582 170.64656853 25.71170364 170.66307772 28.39916992 170.67749023 C29.31658211 170.68281391 30.23399429 170.68813759 31.17920685 170.69362259 C36.03604802 170.72036011 40.89286345 170.73973213 45.74975586 170.75415039 C50.76477654 170.77079002 55.77913901 170.81556018 60.79391098 170.86652184 C64.65098823 170.90019294 68.50790933 170.91172772 72.36511993 170.91737747 C74.21349359 170.92409149 76.06185692 170.93931752 77.91008759 170.96326828 C80.5004165 170.99491741 83.08897155 170.99495729 85.67944336 170.98754883 C86.44019165 171.00395416 87.20093994 171.0203595 87.98474121 171.03726196 C93.78695857 170.9694871 96.12912593 169.38947691 100.03979492 165.40405273 C101.53570201 162.41223856 101.46722503 160.76243214 101.03979492 157.40405273 C94.47219441 144.06831429 82.68758743 136.057456 69.10229492 131.09155273 C49.36573337 125.02071849 28.6000497 130.01219375 13.35229492 143.84155273 Z " fill="#9332EA" transform="translate(299.960205078125,-0.404052734375)"/>
<path d="M0 0 C-0.07330347 1.12368453 -0.14660694 2.24736906 -0.22213173 3.40510464 C-1.03230712 16.85469178 -1.07046272 30.24969139 -0.9408741 43.71944046 C-0.90241204 47.7338993 -0.87064809 51.74836025 -0.84132385 55.76289368 C-0.83621765 56.46027678 -0.83111144 57.15765989 -0.8258505 57.87617581 C-0.81537726 59.30910865 -0.80493149 60.74204168 -0.7945123 62.1749749 C-0.77826798 64.37731026 -0.76130912 66.57963924 -0.74422622 68.78196824 C-0.66168231 79.57732205 -0.60976244 90.3725902 -0.57485962 101.16819763 C-0.5722808 101.9561934 -0.56970198 102.74418917 -0.56704502 103.5560636 C-0.54339157 110.86495356 -0.52185742 118.17384891 -0.50232005 125.48275101 C-0.48892503 130.47523907 -0.47449118 135.46772313 -0.45898438 140.46020508 C-0.45642559 141.28873456 -0.45386681 142.11726404 -0.45123048 142.97090047 C-0.40816973 156.29023513 -0.30096703 169.60831525 -0.17003779 182.9270419 C-0.0360091 196.72440588 0.02210513 210.5207447 0.01604402 224.31876034 C0.01475198 232.01626369 0.04465871 239.71053126 0.16350174 247.40719795 C0.76615805 287.83175402 -4.26752825 321.06797615 -18.7499733 359.00275993 C-21.6592892 366.65368409 -24.14943679 374.42586158 -26.57898879 382.23982537 C-27.52406676 385.26475631 -28.50302147 388.27835349 -29.48046875 391.29296875 C-29.77848389 392.2161792 -30.07649902 393.13938965 -30.38354492 394.09057617 C-30.5869751 394.72068604 -30.79040527 395.3507959 -31 396 C-46.09068174 388.7787162 -55.93522244 368.14139869 -61.30810547 352.9987793 C-64.77923553 342.66482925 -66.30175024 332.66606833 -66.26742554 321.79364014 C-66.27195665 320.72085068 -66.27648776 319.64806122 -66.28115618 318.54276299 C-66.29373366 314.97735708 -66.29218412 311.41210522 -66.29052734 307.84667969 C-66.29651671 305.2782929 -66.3033232 302.70990791 -66.31088257 300.14152527 C-66.32742665 293.9062238 -66.3329891 287.67096017 -66.33410732 281.43563858 C-66.33506086 276.36260707 -66.33918635 271.28958795 -66.34550858 266.21656036 C-66.36310237 251.80375869 -66.37235027 237.39098667 -66.37084763 222.97817418 C-66.37076772 222.20275463 -66.3706878 221.42733508 -66.37060547 220.62841797 C-66.37052371 219.85204146 -66.37044195 219.07566495 -66.37035771 218.27576187 C-66.36954516 205.69944942 -66.38867986 193.12325684 -66.4168822 180.54697904 C-66.44567457 167.60451783 -66.45941904 154.66211496 -66.45769465 141.71962094 C-66.45703298 134.46511595 -66.46242714 127.21073666 -66.48405075 119.95626068 C-66.50426797 113.13041127 -66.50352426 106.30483047 -66.48901749 99.47896767 C-66.48693436 96.98256606 -66.4916004 94.48614767 -66.5037384 91.9897747 C-66.56253965 79.05223075 -66.43237647 67.26914994 -62 55 C-61.6118128 53.90967342 -61.2236256 52.81934685 -60.82367516 51.69598007 C-52.67981185 29.8246837 -35.4459906 14.50361631 -14.8359375 4.69921875 C-4.54095528 0 -4.54095528 0 0 0 Z " fill="#9332EA" transform="translate(66,87)"/>
<path d="M0 0 C0 57.42 0 114.84 0 174 C-6.93 175.98 -13.86 177.96 -21 180 C-46.00146665 189.77500952 -67.88905515 205.42226553 -82.625 228.19921875 C-83.07875 228.79347656 -83.5325 229.38773438 -84 230 C-84.66 230 -85.32 230 -86 230 C-86.07022912 207.81579836 -86.12305612 185.63161519 -86.15543652 163.44732475 C-86.17087409 153.14567208 -86.19190388 142.84408867 -86.22631836 132.54248047 C-86.25631621 123.55862222 -86.27559757 114.57481416 -86.28226548 105.59090722 C-86.28616021 100.83851474 -86.29524787 96.08626579 -86.31719017 91.33391953 C-86.33771979 86.85074542 -86.34380089 82.36777247 -86.33932304 77.88455582 C-86.34014094 76.24884189 -86.34600767 74.61312045 -86.35761642 72.97744751 C-86.48981079 53.37129228 -82.47879928 34.76739843 -68.87109375 19.78125 C-48.22509179 0.12660095 -28.28447642 0 0 0 Z " fill="#9332EA" transform="translate(192,42)"/>
</svg>
