<svg width="64" height="64" viewBox="0 0 64 64" xmlns="http://www.w3.org/2000/svg">
  <!-- NEET UG Logo Design -->
  <defs>
    <linearGradient id="neetGradient" x1="0%" y1="0%" x2="100%" y2="100%">
      <stop offset="0%" style="stop-color:#E91E63;stop-opacity:1" />
      <stop offset="100%" style="stop-color:#AD1457;stop-opacity:1" />
    </linearGradient>
  </defs>
  
  <!-- Background Circle -->
  <circle cx="32" cy="32" r="30" fill="#FFF" stroke="#E91E63" stroke-width="2"/>
  
  <!-- Medical Cross -->
  <g transform="translate(32, 32)">
    <!-- Vertical bar -->
    <rect x="-3" y="-18" width="6" height="36" fill="url(#neetGradient)" rx="2"/>
    
    <!-- Horizontal bar -->
    <rect x="-18" y="-3" width="36" height="6" fill="url(#neetGradient)" rx="2"/>
    
    <!-- Heart symbol overlay -->
    <path d="M-8,-8 C-12,-12 -16,-8 -16,-4 C-16,0 -8,8 0,12 C8,8 16,0 16,-4 C16,-8 12,-12 8,-8 C4,-4 0,-6 0,-6 C0,-6 -4,-4 -8,-8 Z" 
          fill="#FFF" opacity="0.3" transform="scale(0.6)"/>
  </g>
  
  <!-- NEET Text -->
  <text x="32" y="52" font-family="Arial, sans-serif" font-size="7" font-weight="bold" text-anchor="middle" fill="#E91E63">NEET</text>
</svg>